# xmcd CD database file generated by Grip 2.96
# 
# Track frame offsets:
#       150
#       14387
#       26218
#       37748
#       51615
#       62605
#       74845
#       87554
#       102568
#       115274
#       126739
#       140687
#       153452
#       166588
#       179538
#       189871
# 
# Disc length: 2683 seconds
# 
# Revision: 0
# Processed by: cddbd v1.4PL0 Copyright (c) Steve Scherf et al.
# Submitted via: Grip 2.96
# 
DISCID=ee0a7910
DTITLE=Ray Charles - Walkin' and Talkin'
DYEAR=1900
DGENRE=
TTITLE0=Walkin' and Talkin'
TTITLE1=If I give you my Love?
TTITLE2=What have I done?
TTITLE3=Misery in my heart
TTITLE4=a sentimental blues
TTITLE5=Honey honey
TTITLE6=Blues before sunrise
TTITLE7=I' wondering and wondering
TTITLE8=you never miss
TTITLE9=Let's have a ball
TTITLE10=Late in the evening
TTITLE11=The snow is falling
TTITLE12=Baby won't you please come home
TTITLE13=Don't put all your dreams in a basket
TTITLE14=Sittin' on top of the world
TTITLE15=Back home
EXTD=
EXTT0=
EXTT1=
EXTT2=
EXTT3=
EXTT4=
EXTT5=
EXTT6=
EXTT7=
EXTT8=
EXTT9=
EXTT10=
EXTT11=
EXTT12=
EXTT13=
EXTT14=
EXTT15=
PLAYORDER=
